<svg xmlns="http://www.w3.org/2000/svg" viewBox="0 0 64 64" width="64" height="64">
  <defs>
    <linearGradient id="cover" x1="0" y1="0" x2="1" y2="1">
      <stop offset="0" stop-color="#2b2b2b"/>
      <stop offset="1" stop-color="#111111"/>
    </linearGradient>
  </defs>

  <rect x="0" y="0" width="64" height="64" rx="14" fill="#f6eedc"/>

  <path d="M18 10h26c4 0 8 3 8 8v34c0 3-2 5-5 5H22c-2 0-4 1-5 2V14c0-2 0-4 1-4z"
        fill="url(#cover)" stroke="rgba(255,255,255,0.35)" stroke-width="1.5"/>
  <path d="M18 10h3c3 0 6 2 6 6v41c-2-2-4-2-6-2h-3V10z"
        fill="rgba(255,255,255,0.08)"/>
  <path d="M46 14h2c2 0 4 2 4 4v32c0 2-2 4-4 4h-2V14z"
        fill="rgba(255,255,255,0.12)"/>

  <path d="M34 22h-4v8h-7v4h7v12h4V34h7v-4h-7v-8z"
        fill="rgba(255,255,255,0.9)"/>
</svg>

